<svg width="112" height="25" viewBox="0 0 112 25" fill="none" xmlns="http://www.w3.org/2000/svg">
<path d="M26.3165 0.827148H23.5417V16.7721H26.3165V0.827148Z" fill="black"/>
<path d="M29.7589 12.0204C29.7589 12.5524 29.8696 13.0239 30.0969 13.429C30.3212 13.834 30.6194 14.1484 30.9886 14.3721C31.3579 14.5957 31.7612 14.7076 32.1985 14.7076C32.6558 14.7076 33.0619 14.5927 33.4169 14.366C33.772 14.1393 34.0531 13.8219 34.2605 13.4169C34.4678 13.0118 34.57 12.5463 34.57 12.0204C34.57 11.4944 34.4678 11.0289 34.2605 10.6239C34.0531 10.2188 33.772 9.8984 33.4169 9.66867C33.0619 9.43592 32.6558 9.32105 32.1985 9.32105C31.7413 9.32105 31.3607 9.43591 30.9886 9.66262C30.6194 9.88933 30.3212 10.2067 30.0969 10.6118C29.8725 11.0168 29.7589 11.4884 29.7589 12.0204ZM34.6155 16.7721V15.1157C34.5502 15.2849 34.3826 15.5267 34.1156 15.8351C33.8458 16.1434 33.4851 16.4245 33.0335 16.6754C32.5791 16.9263 32.048 17.0532 31.4374 17.0532C30.5825 17.0532 29.8214 16.8356 29.1625 16.3973C28.5007 15.962 27.9838 15.3605 27.6117 14.6018C27.2369 13.8401 27.0522 12.9816 27.0522 12.0234C27.0522 11.0652 27.2397 10.2067 27.6117 9.44498C27.9866 8.68325 28.5035 8.08173 29.1625 7.64343C29.8214 7.20211 30.5825 6.98145 31.4374 6.98145C32.0338 6.98145 32.5507 7.08724 32.9881 7.29883C33.4283 7.51043 33.7833 7.75829 34.056 8.03941C34.3286 8.32052 34.5047 8.57443 34.5842 8.79812V7.25652H37.3278V16.7691H34.6155V16.7721Z" fill="black"/>
<path d="M44.2151 6.98145C44.8257 6.98145 45.4193 7.11445 46.0015 7.38045C46.5809 7.64645 47.058 8.06963 47.4329 8.65C47.8078 9.23037 47.9924 9.98605 47.9924 10.9201V16.7721H45.2176V11.4309C45.2176 10.6511 45.0444 10.0707 44.7007 9.69285C44.3542 9.31501 43.9055 9.12457 43.346 9.12457C42.9825 9.12457 42.636 9.23037 42.3065 9.44196C41.9771 9.65355 41.7072 9.94676 41.4999 10.3216C41.2926 10.6964 41.1903 11.1226 41.1903 11.6032V16.7721H38.4241V7.25954H41.1903V8.77696C41.2699 8.51398 41.4516 8.24495 41.7356 7.96686C42.0197 7.68877 42.3775 7.45602 42.8149 7.26558C43.2494 7.07515 43.7181 6.98145 44.2179 6.98145H44.2151Z" fill="black"/>
<path d="M53.6556 14.7076C54.127 14.7076 54.5105 14.623 54.8087 14.4537C55.1069 14.2844 55.3029 14.1575 55.3966 14.0728L56.6803 16.1011C56.5781 16.1857 56.3906 16.3066 56.1151 16.4608C55.8396 16.615 55.4903 16.754 55.0643 16.8719C54.6383 16.9928 54.1554 17.0502 53.6101 17.0502C52.6672 17.0502 51.8209 16.8477 51.0739 16.4427C50.327 16.0376 49.7362 15.4573 49.3045 14.7046C48.8728 13.9519 48.657 13.0542 48.657 12.0113C48.657 10.9685 48.8728 10.0617 49.3045 9.31201C49.7362 8.56237 50.327 7.98805 51.0739 7.58602C51.8209 7.184 52.6672 6.9845 53.6101 6.9845C54.1469 6.9845 54.6241 7.04797 55.0416 7.16888C55.4591 7.29282 55.8084 7.43489 56.0924 7.59207C56.3764 7.74925 56.5724 7.87923 56.6803 7.982L55.3625 10.0224C55.3114 9.95888 55.2148 9.87424 55.0671 9.76845C54.9223 9.65963 54.732 9.55988 54.4963 9.46617C54.2605 9.37247 53.9794 9.32713 53.6527 9.32713C53.2551 9.32713 52.8746 9.43897 52.5139 9.66265C52.156 9.88633 51.8635 10.2007 51.6391 10.6027C51.4147 11.0048 51.3011 11.4763 51.3011 12.0174C51.3011 12.5584 51.4119 13.033 51.6391 13.435C51.8635 13.8401 52.156 14.1545 52.5139 14.3781C52.8717 14.6018 53.2523 14.7137 53.6527 14.7137L53.6556 14.7076Z" fill="black"/>
<path d="M63.1273 10.8505C63.1188 10.6027 63.0478 10.3367 62.9143 10.0495C62.7808 9.76234 62.5678 9.52052 62.2838 9.32102C61.9969 9.12152 61.622 9.01875 61.1563 9.01875C60.6905 9.01875 60.2985 9.1185 59.9975 9.31498C59.6964 9.51145 59.4721 9.75025 59.3215 10.0283C59.1739 10.3064 59.083 10.5815 59.0546 10.8505H63.1273ZM58.9807 12.6702C59.0034 13.1025 59.1114 13.4894 59.3073 13.8279C59.5033 14.1665 59.7873 14.4355 60.1622 14.629C60.5371 14.8224 60.9887 14.9191 61.5169 14.9191C61.9827 14.9191 62.3917 14.8557 62.7524 14.7348C63.1103 14.6108 63.417 14.4597 63.6669 14.2813C63.9168 14.103 64.1015 13.9247 64.2179 13.7493L65.371 15.5449C65.1608 15.8229 64.8882 16.0769 64.5559 16.3036C64.2207 16.5303 63.7947 16.7147 63.275 16.8477C62.7552 16.9837 62.1077 17.0502 61.3323 17.0502C60.3525 17.0502 59.4919 16.8446 58.7507 16.4366C58.0094 16.0285 57.43 15.436 57.0125 14.6622C56.595 13.8884 56.3877 12.9695 56.3877 11.9055C56.3877 10.9775 56.5751 10.1432 56.9472 9.39659C57.3221 8.64997 57.8617 8.06356 58.5689 7.62828C59.2761 7.19603 60.1281 6.97839 61.1222 6.97839C62.0594 6.97839 62.8688 7.16883 63.5562 7.55272C64.2406 7.93358 64.7746 8.49279 65.1523 9.22732C65.53 9.96184 65.7175 10.8566 65.7175 11.9145C65.7175 11.978 65.7175 12.105 65.7118 12.2954C65.709 12.4889 65.7004 12.6128 65.6834 12.6672H58.975L58.9807 12.6702Z" fill="black"/>
<path d="M69.2904 16.7721H66.5242V7.25954H69.2904V8.80114H69.2365C69.2876 8.61675 69.4268 8.38098 69.654 8.09382C69.8812 7.80666 70.1993 7.55274 70.6054 7.32302C71.0116 7.09631 71.5029 6.98145 72.0766 6.98145C72.4913 6.98145 72.8662 7.04492 73.2041 7.17188C73.5421 7.29883 73.7835 7.42579 73.9284 7.54972L72.8406 9.95885C72.7469 9.83492 72.5708 9.70796 72.3123 9.57798C72.0539 9.44801 71.7329 9.38151 71.3495 9.38151C70.8923 9.38151 70.5117 9.51451 70.2078 9.78051C69.9039 10.0465 69.6739 10.373 69.5233 10.7538C69.3728 11.1347 69.2961 11.4944 69.2961 11.8239V16.7721H69.2904Z" fill="black"/>
<path d="M76.0187 17.0501C75.5756 17.0501 75.1951 16.8809 74.8798 16.5453C74.5646 16.2098 74.4055 15.8017 74.4055 15.3241C74.4055 14.8465 74.5646 14.4355 74.8798 14.0969C75.1951 13.7584 75.5756 13.5861 76.0187 13.5861C76.4618 13.5861 76.8622 13.7553 77.1775 14.0969C77.4927 14.4355 77.6518 14.8465 77.6518 15.3241C77.6518 15.8017 77.4927 16.2098 77.1775 16.5453C76.8622 16.8809 76.476 17.0501 76.0187 17.0501Z" fill="black"/>
<path d="M83.9539 15.0461C84.4708 15.0461 84.8883 14.9555 85.212 14.7741C85.5358 14.5927 85.7432 14.4597 85.8369 14.3751L86.936 16.1132C86.848 16.1918 86.6662 16.3036 86.3907 16.4547C86.1152 16.6059 85.7659 16.7419 85.3399 16.8658C84.9138 16.9898 84.4339 17.0502 83.8971 17.0502C83.011 17.0502 82.2072 16.8507 81.4858 16.4547C80.7644 16.0557 80.185 15.4814 79.7562 14.7287C79.3245 13.9761 79.1086 13.0693 79.1086 12.0113C79.1086 10.9533 79.3245 10.0374 79.7562 9.2878C80.1879 8.53816 80.7644 7.96686 81.4858 7.5739C82.2072 7.18095 83.011 6.98145 83.8971 6.98145C84.4253 6.98145 84.8996 7.04492 85.3171 7.17188C85.7346 7.29883 86.0811 7.44393 86.3566 7.60715C86.6321 7.77038 86.8167 7.89734 86.9133 7.98802L85.7914 9.7261C85.7403 9.67169 85.6381 9.58705 85.4819 9.46614C85.3257 9.34826 85.1212 9.23641 84.8656 9.13666C84.6099 9.03691 84.306 8.98553 83.951 8.98553C83.5165 8.98553 83.099 9.10946 82.6985 9.35732C82.3009 9.60519 81.9715 9.95281 81.7187 10.4062C81.4631 10.8596 81.3381 11.3916 81.3381 12.0113C81.3381 12.631 81.4659 13.166 81.7187 13.6224C81.9715 14.0789 82.2981 14.4295 82.6985 14.6774C83.0962 14.9252 83.5137 15.0492 83.951 15.0492L83.9539 15.0461Z" fill="black"/>
<path d="M91.8153 14.9645C92.3379 14.9645 92.7923 14.8376 93.1757 14.5837C93.562 14.3297 93.8574 13.9821 94.0675 13.5408C94.2777 13.0995 94.3828 12.5977 94.3828 12.0355C94.3828 11.4732 94.2777 10.9684 94.0675 10.5241C93.8574 10.0798 93.5592 9.7261 93.1757 9.46312C92.7895 9.20014 92.3379 9.07016 91.8153 9.07016C91.2927 9.07016 90.8383 9.20014 90.4492 9.46312C90.0601 9.7261 89.7591 10.0798 89.5461 10.5241C89.3331 10.9684 89.2251 11.4732 89.2251 12.0355C89.2251 12.5977 89.3331 13.1025 89.5461 13.5408C89.7591 13.9821 90.063 14.3297 90.4492 14.5837C90.8383 14.8376 91.2927 14.9645 91.8153 14.9645ZM91.8153 17.0502C90.8781 17.0502 90.0459 16.8326 89.316 16.3943C88.5861 15.959 88.0152 15.3635 87.6006 14.6109C87.1859 13.8582 86.9814 13.0028 86.9814 12.0445C86.9814 11.0863 87.1888 10.2249 87.6006 9.4601C88.0152 8.69534 88.5861 8.09079 89.316 7.64645C90.0459 7.20211 90.8781 6.98145 91.8153 6.98145C92.7526 6.98145 93.579 7.20211 94.2976 7.64645C95.0161 8.09079 95.5813 8.69534 95.9903 9.4601C96.3993 10.2249 96.6066 11.0863 96.6066 12.0445C96.6066 13.0028 96.4021 13.8582 95.9903 14.6109C95.5813 15.3635 95.0161 15.959 94.2976 16.3943C93.579 16.8296 92.7526 17.0502 91.8153 17.0502Z" fill="black"/>
<path d="M108.691 6.98145C109.359 6.98145 109.935 7.13258 110.418 7.43486C110.901 7.73713 111.273 8.19961 111.54 8.82532C111.804 9.45103 111.937 10.2521 111.937 11.2254V16.7751H109.64V11.6667C109.64 10.7478 109.518 10.0495 109.273 9.56892C109.029 9.09132 108.575 8.8495 107.907 8.8495C107.544 8.8495 107.203 8.9553 106.885 9.16387C106.567 9.37244 106.308 9.68378 106.118 10.0949C105.925 10.509 105.828 11.0319 105.828 11.6637V16.7721H103.673V11.6637C103.673 10.7448 103.525 10.0465 103.232 9.56589C102.937 9.0883 102.5 8.84648 101.92 8.84648C101.551 8.84648 101.207 8.94623 100.898 9.14875C100.585 9.34826 100.336 9.6596 100.145 10.0767C99.9578 10.4939 99.8613 11.0229 99.8613 11.6637V16.7721H97.5522V7.25954H99.8613V8.68627C99.9408 8.44748 100.12 8.19659 100.401 7.93361C100.679 7.67063 101.031 7.44695 101.452 7.26256C101.872 7.07817 102.335 6.98447 102.835 6.98447C103.38 6.98447 103.832 7.09026 104.19 7.30186C104.547 7.51345 104.834 7.77945 105.05 8.09684C105.263 8.41423 105.422 8.73162 105.524 9.04598C105.627 8.72859 105.823 8.4112 106.118 8.09684C106.413 7.77945 106.78 7.51647 107.223 7.30186C107.666 7.08724 108.154 6.98447 108.694 6.98447L108.691 6.98145Z" fill="black"/>
<path d="M13.6497 16.4547C13.343 16.9988 13.022 17.4794 12.6102 17.8845C12.1672 18.3197 11.6701 18.6522 11.0567 18.7278C10.1251 18.8396 9.44349 18.3923 8.94647 17.5973C8.57442 16.9988 8.39549 16.3247 8.30745 15.6114C8.0916 13.9156 7.92971 12.2077 7.48949 10.5513C7.35885 10.0616 7.17708 9.59004 6.83911 9.20918C6.63178 8.97643 6.55225 8.96131 6.28812 9.12152C5.86494 9.37241 5.52413 9.72607 5.21172 10.113C4.16088 11.4067 3.40256 12.8818 2.78626 14.4506C2.41136 15.4058 2.06771 16.3701 1.79222 17.3645C1.64737 17.8966 1.18159 18.1807 0.695933 18.0658C0.224473 17.954 -0.0510179 17.4885 0.0114647 16.9353C0.164831 15.5781 0.309677 14.2209 0.463043 12.8667C0.613569 11.5095 0.772616 10.1553 0.923142 8.79809C1.08503 7.33205 1.24408 5.86904 1.40596 4.40301C1.50821 3.47805 1.60761 2.55611 1.72406 1.63418C1.79506 1.0659 2.24664 0.700148 2.74082 0.772694C3.23784 0.848262 3.57581 1.32586 3.51333 1.89111C3.306 3.80451 3.09015 5.71791 2.87714 7.6313C2.77206 8.58045 2.66697 9.53261 2.56189 10.4818C2.55621 10.518 2.55621 10.5573 2.55337 10.6087C2.63857 10.5724 2.66129 10.4938 2.69822 10.4334C3.2492 9.57795 3.8229 8.74368 4.56133 8.05751C4.94475 7.70083 5.35656 7.38344 5.8479 7.21114C6.63462 6.93607 7.34749 7.08117 7.96947 7.67967C8.55738 8.25097 8.91239 8.97038 9.168 9.75932C9.46337 10.6752 9.5997 11.6274 9.74454 12.5765C9.91779 13.71 10.0286 14.8526 10.2472 15.9801C10.2927 16.2189 10.3893 16.4305 10.5256 16.621C10.6761 16.8295 10.7925 16.8507 11.0141 16.7358C11.264 16.6058 11.4571 16.4003 11.6247 16.1736C12.3035 15.2577 12.6699 14.1967 12.8658 13.0662C12.9255 12.7277 12.809 12.38 12.7494 12.0385C12.6216 11.2858 12.4597 10.5422 12.3291 9.79257C12.2609 9.39961 12.2353 9.00363 12.2666 8.60463C12.3006 8.15122 12.5477 7.8036 12.9255 7.68269C13.3032 7.55876 13.6809 7.69478 13.9536 8.06053C14.4449 8.71949 14.6721 9.49332 14.7801 10.3125C14.8908 11.1649 14.871 12.0143 14.7573 12.8667C14.7204 13.1539 14.8028 13.4289 14.8482 13.704C14.9618 14.4023 15.0953 15.0914 15.3538 15.7474C15.4731 16.0497 15.6207 16.3368 15.8423 16.5756C16.0354 16.7842 16.1064 16.8023 16.3507 16.6602C16.6716 16.4728 16.9528 16.231 17.2027 15.9469C18.2393 14.762 19.0147 13.4017 19.6282 11.9296C20.1053 10.784 20.5455 9.62329 20.8693 8.41722C21.0141 7.87917 21.4685 7.59503 21.957 7.70083C22.437 7.80662 22.7154 8.27515 22.6529 8.8404C22.4881 10.3064 22.3319 11.7694 22.1672 13.2355C22.028 14.4778 21.8832 15.7172 21.744 16.9595C21.6049 18.2018 21.4714 19.4442 21.3351 20.6865C21.2073 21.8382 21.0823 22.9929 20.9403 24.1446C20.8721 24.7008 20.4262 25.0605 19.932 24.997C19.4379 24.9335 19.0857 24.4468 19.1453 23.8907C19.3555 21.9712 19.5714 20.0518 19.7844 18.1323C19.8894 17.1892 19.9945 16.2431 20.0968 15.3C20.1025 15.2577 20.1223 15.2154 20.0826 15.1549C19.9264 15.3937 19.7758 15.6325 19.6168 15.8622C19.0658 16.6633 18.4921 17.4401 17.7253 18.0265C17.2794 18.3681 16.8051 18.6432 16.2399 18.6825C15.4986 18.7369 14.9221 18.3953 14.4421 17.824C14.1581 17.4855 13.9309 17.1076 13.7519 16.6995C13.7235 16.63 13.6923 16.5635 13.644 16.4607L13.6497 16.4547Z" fill="black"/>
</svg>
