<svg width="36" height="36" viewBox="0 0 36 36" fill="none" xmlns="http://www.w3.org/2000/svg">
<rect width="35.75" height="35.75" rx="8" fill="#F5C10A"/>
<path d="M19.4372 20.3507C19.2251 20.6943 19.0032 20.9978 18.7184 21.2536C18.412 21.5285 18.0683 21.7385 17.6441 21.7862C16.9999 21.8569 16.5285 21.5743 16.1848 21.0723C15.9275 20.6943 15.8038 20.2686 15.7429 19.8181C15.5936 18.7471 15.4817 17.6686 15.1773 16.6225C15.0869 16.3132 14.9612 16.0154 14.7275 15.7749C14.5842 15.6279 14.5292 15.6183 14.3465 15.7195C14.0539 15.878 13.8182 16.1013 13.6022 16.3457C12.8755 17.1627 12.3511 18.0943 11.9249 19.085C11.6657 19.6883 11.428 20.2972 11.2375 20.9253C11.1373 21.2613 10.8152 21.4407 10.4794 21.3682C10.1534 21.2975 9.96286 21.0035 10.0061 20.6542C10.1121 19.7971 10.2123 18.9399 10.3183 18.0847C10.4224 17.2276 10.5324 16.3724 10.6365 15.5153C10.7485 14.5894 10.8584 13.6655 10.9704 12.7396C11.0411 12.1555 11.1098 11.5732 11.1904 10.991C11.2395 10.6321 11.5517 10.4011 11.8935 10.4469C12.2372 10.4947 12.4709 10.7963 12.4277 11.1533C12.2843 12.3616 12.135 13.57 11.9877 14.7784C11.9151 15.3778 11.8424 15.9791 11.7697 16.5786C11.7658 16.6015 11.7658 16.6263 11.7639 16.6587C11.8228 16.6358 11.8385 16.5862 11.864 16.548C12.245 16.0078 12.6418 15.4809 13.1524 15.0476C13.4175 14.8223 13.7023 14.6219 14.0421 14.513C14.5861 14.3393 15.0791 14.431 15.5092 14.8089C15.9157 15.1697 16.1612 15.6241 16.338 16.1223C16.5423 16.7007 16.6365 17.3021 16.7367 17.9015C16.8565 18.6173 16.9331 19.3389 17.0843 20.051C17.1157 20.2018 17.1825 20.3354 17.2768 20.4557C17.3809 20.5874 17.4614 20.6008 17.6146 20.5282C17.7874 20.4461 17.921 20.3163 18.0369 20.1731C18.5063 19.5947 18.7596 18.9247 18.8951 18.2107C18.9364 17.9969 18.8559 17.7774 18.8146 17.5617C18.7262 17.0863 18.6143 16.6167 18.5239 16.1433C18.4768 15.8951 18.4591 15.6451 18.4807 15.3931C18.5043 15.1067 18.6752 14.8872 18.9364 14.8108C19.1976 14.7326 19.4588 14.8185 19.6473 15.0495C19.9871 15.4656 20.1442 15.9543 20.2189 16.4716C20.2955 17.01 20.2817 17.5464 20.2032 18.0847C20.1776 18.2661 20.2346 18.4398 20.266 18.6135C20.3446 19.0545 20.4369 19.4897 20.6156 19.904C20.6981 20.0949 20.8002 20.2762 20.9534 20.427C21.087 20.5588 21.1361 20.5702 21.305 20.4805C21.5269 20.3621 21.7213 20.2094 21.8942 20.03C22.611 19.2817 23.1472 18.4226 23.5714 17.4929C23.9014 16.7694 24.2058 16.0364 24.4297 15.2747C24.5298 14.9349 24.8441 14.7555 25.1819 14.8223C25.5138 14.8891 25.7063 15.185 25.6631 15.542C25.5492 16.4678 25.4411 17.3918 25.3272 18.3176C25.231 19.1022 25.1308 19.8849 25.0346 20.6695C24.9384 21.4541 24.8461 22.2387 24.7518 23.0232C24.6634 23.7506 24.577 24.4798 24.4788 25.2071C24.4316 25.5584 24.1233 25.7855 23.7816 25.7454C23.4398 25.7053 23.1963 25.398 23.2375 25.0467C23.3829 23.8345 23.5321 22.6224 23.6794 21.4102C23.7521 20.8146 23.8248 20.2171 23.8955 19.6215C23.8994 19.5947 23.9132 19.568 23.8857 19.5298C23.7776 19.6806 23.6735 19.8314 23.5636 19.9765C23.1825 20.4824 22.7858 20.973 22.2555 21.3433C21.9472 21.5591 21.6192 21.7328 21.2284 21.7576C20.7158 21.792 20.3171 21.5762 19.9852 21.2154C19.7888 21.0016 19.6316 20.763 19.5079 20.5053C19.4883 20.4614 19.4667 20.4194 19.4333 20.3545L19.4372 20.3507Z" fill="black"/>
</svg>
