<svg width="49" height="48" viewBox="0 0 49 48" fill="none" xmlns="http://www.w3.org/2000/svg">
<path fill-rule="evenodd" clip-rule="evenodd" d="M38.2036 6H29.8436C29.0036 3.68 26.8036 2 24.2036 2C21.6036 2 19.4036 3.68 18.5636 6H10.2036C8.00361 6 6.20361 7.8 6.20361 10V38C6.20361 40.2 8.00361 42 10.2036 42H38.2036C40.4036 42 42.2036 40.2 42.2036 38V10C42.2036 7.8 40.4036 6 38.2036 6ZM24.2036 6C25.3036 6 26.2036 6.9 26.2036 8C26.2036 9.1 25.3036 10 24.2036 10C23.1036 10 22.2036 9.1 22.2036 8C22.2036 6.9 23.1036 6 24.2036 6ZM24.2036 13.9999C27.5236 13.9999 30.2036 16.6799 30.2036 19.9999C30.2036 23.3199 27.5236 25.9999 24.2036 25.9999C20.8836 25.9999 18.2036 23.3199 18.2036 19.9999C18.2036 16.6799 20.8836 13.9999 24.2036 13.9999ZM36.2036 37.9999H12.2036V35.1999C12.2036 31.1999 20.2036 28.9999 24.2036 28.9999C28.2036 28.9999 36.2036 31.1999 36.2036 35.1999V37.9999Z" fill="#F5C10A"/>
</svg>
