<svg width="49" height="48" viewBox="0 0 49 48" fill="none" xmlns="http://www.w3.org/2000/svg">
<path fill-rule="evenodd" clip-rule="evenodd" d="M34.1019 40V22H30.1019V8H44.1019L40.1019 18H44.1019L34.1019 40ZM30.1018 26V40H8.10181C5.90181 40 4.10181 38.2 4.10181 36V30C4.10181 27.8 5.90181 26 8.10181 26H30.1018ZM12.6017 31.5001H9.60175V34.5001H12.6017V31.5001ZM26.1019 8.00012V22.0001H8.10187C5.90187 22.0001 4.10187 20.2001 4.10187 18.0001V12.0001C4.10187 9.80012 5.90187 8.00012 8.10187 8.00012H26.1019ZM12.6017 13.5001H9.60175V16.5001H12.6017V13.5001Z" fill="#F5C10A"/>
</svg>
