<svg width="27" height="27" viewBox="0 0 27 27" fill="none" xmlns="http://www.w3.org/2000/svg">
<rect x="0.601807" y="0.494629" width="25.6018" height="25.6018" rx="12.8009" fill="black"/>
<path d="M13.4003 8.32508C15.0197 8.32508 15.2098 8.33229 15.8498 8.36117C16.4417 8.38764 16.7617 8.48629 16.9759 8.57051C17.2598 8.68119 17.4619 8.81113 17.6737 9.02287C17.8854 9.23462 18.0178 9.43674 18.1261 9.72067C18.2079 9.93482 18.3089 10.2548 18.3354 10.8468C18.3643 11.4868 18.3715 11.6769 18.3715 13.2963C18.3715 14.9156 18.3643 15.1057 18.3354 15.7458C18.3089 16.3377 18.2103 16.6577 18.1261 16.8719C18.0154 17.1558 17.8854 17.3579 17.6737 17.5697C17.4619 17.7814 17.2598 17.9137 16.9759 18.022C16.7617 18.1038 16.4417 18.2049 15.8498 18.2314C15.2098 18.2602 15.0197 18.2674 13.4003 18.2674C11.7809 18.2674 11.5908 18.2602 10.9508 18.2314C10.3589 18.2049 10.0389 18.1062 9.8247 18.022C9.54077 17.9113 9.33865 17.7814 9.12691 17.5697C8.91517 17.3579 8.78282 17.1558 8.67455 16.8719C8.59274 16.6577 8.49168 16.3377 8.46521 15.7458C8.43633 15.1057 8.42911 14.9156 8.42911 13.2963C8.42911 11.6769 8.43633 11.4868 8.46521 10.8468C8.49168 10.2548 8.59033 9.93482 8.67455 9.72067C8.78523 9.43674 8.91517 9.23462 9.12691 9.02287C9.33865 8.81113 9.54077 8.67879 9.8247 8.57051C10.0389 8.4887 10.3589 8.38764 10.9508 8.36117C11.5908 8.32989 11.7809 8.32508 13.4003 8.32508ZM13.4003 7.23267C11.7545 7.23267 11.5475 7.23988 10.9003 7.26876C10.2554 7.29763 9.81508 7.4011 9.43009 7.55028C9.03066 7.70428 8.6938 7.91362 8.35693 8.25048C8.02006 8.58735 7.81313 8.92662 7.65673 9.32364C7.50754 9.70863 7.40408 10.149 7.3752 10.7962C7.34633 11.4411 7.33911 11.648 7.33911 13.2939C7.33911 14.9397 7.34633 15.1466 7.3752 15.7939C7.40408 16.4387 7.50754 16.8791 7.65673 17.2665C7.81072 17.6659 8.02006 18.0028 8.35693 18.3396C8.6938 18.6765 9.03307 18.8834 9.43009 19.0398C9.81508 19.189 10.2554 19.2925 10.9027 19.3214C11.5499 19.3502 11.7545 19.3575 13.4027 19.3575C15.0509 19.3575 15.2555 19.3502 15.9027 19.3214C16.5476 19.2925 16.9879 19.189 17.3753 19.0398C17.7748 18.8858 18.1116 18.6765 18.4485 18.3396C18.7854 18.0028 18.9923 17.6635 19.1487 17.2665C19.2979 16.8815 19.4013 16.4412 19.4302 15.7939C19.4591 15.1466 19.4663 14.9421 19.4663 13.2939C19.4663 11.6456 19.4591 11.4411 19.4302 10.7938C19.4013 10.149 19.2979 9.70863 19.1487 9.32124C18.9947 8.92181 18.7854 8.58494 18.4485 8.24808C18.1116 7.91121 17.7723 7.70428 17.3753 7.54788C16.9903 7.39869 16.55 7.29523 15.9027 7.26635C15.2531 7.23988 15.0461 7.23267 13.4003 7.23267Z" fill="white"/>
<rect x="8.32495" y="8.21851" width="10.3485" height="10.3485" rx="3" fill="white"/>
<path d="M13.4002 10.1805C11.6822 10.1805 10.2866 11.5737 10.2866 13.2942C10.2866 15.0146 11.6822 16.4078 13.4002 16.4078C15.1182 16.4078 16.5138 15.0122 16.5138 13.2942C16.5138 11.5761 15.1182 10.1805 13.4002 10.1805ZM13.4002 15.3154C12.2838 15.3154 11.379 14.4106 11.379 13.2942C11.379 12.1777 12.2838 11.273 13.4002 11.273C14.5167 11.273 15.4214 12.1777 15.4214 13.2942C15.4214 14.4106 14.5167 15.3154 13.4002 15.3154Z" fill="black"/>
<path d="M16.6366 10.784C17.0379 10.784 17.3633 10.4587 17.3633 10.0574C17.3633 9.65603 17.0379 9.33069 16.6366 9.33069C16.2353 9.33069 15.9099 9.65603 15.9099 10.0574C15.9099 10.4587 16.2353 10.784 16.6366 10.784Z" fill="black"/>
</svg>
