<svg width="27" height="27" viewBox="0 0 27 27" fill="none" xmlns="http://www.w3.org/2000/svg">
<rect x="0.805664" y="0.494629" width="25.6018" height="25.6018" rx="12.8009" fill="black"/>
<path d="M18.8039 7.90601H8.40649C7.93006 7.90601 7.54297 8.27543 7.54297 8.72892V18.4969C7.54297 18.9504 7.93006 19.3198 8.40649 19.3198H18.8039C19.2804 19.3198 19.6702 18.9504 19.6702 18.4969V8.72892C19.6702 8.27543 19.2804 7.90601 18.8039 7.90601ZM11.2082 17.6893H9.41077V12.2422H11.2109V17.6893H11.2082ZM10.3095 11.4983C9.7329 11.4983 9.2673 11.0575 9.2673 10.5174C9.2673 9.97731 9.7329 9.53655 10.3095 9.53655C10.8834 9.53655 11.3517 9.97731 11.3517 10.5174C11.3517 11.0601 10.8861 11.4983 10.3095 11.4983ZM17.9458 17.6893H16.1484V15.0396C16.1484 14.4078 16.1349 13.5951 15.2145 13.5951C14.2779 13.5951 14.1344 14.283 14.1344 14.9938V17.6893H12.337V12.2422H14.0613V12.9862H14.0857C14.3266 12.5582 14.914 12.1072 15.7884 12.1072C17.6075 12.1072 17.9458 13.2359 17.9458 14.7033V17.6893Z" fill="white"/>
</svg>
