<svg width="216" height="49" viewBox="0 0 216 49" fill="none" xmlns="http://www.w3.org/2000/svg">
<g clip-path="url(#clip0_367_2169)">
<mask id="mask0_367_2169" style="mask-type:luminance" maskUnits="userSpaceOnUse" x="0" y="1" width="216" height="48">
<path d="M216 1.48486H0V48.9704H216V1.48486Z" fill="white"/>
</mask>
<g mask="url(#mask0_367_2169)">
<path d="M50.7533 1.62109H45.4019V32.8733H50.7533V1.62109Z" fill="#F5C10A"/>
<path d="M57.3918 23.5599C57.3918 24.6026 57.6054 25.5268 58.0436 26.3207C58.4763 27.1146 59.0514 27.7308 59.7635 28.1692C60.4756 28.6076 61.2534 28.8268 62.0969 28.8268C62.9787 28.8268 63.762 28.6017 64.4467 28.1573C65.1313 27.713 65.6736 27.0909 66.0734 26.297C66.4733 25.5031 66.6705 24.5907 66.6705 23.5599C66.6705 22.529 66.4733 21.6166 66.0734 20.8227C65.6736 20.0288 65.1313 19.4008 64.4467 18.9505C63.762 18.4944 62.9787 18.2692 62.0969 18.2692C61.215 18.2692 60.481 18.4944 59.7635 18.9387C59.0514 19.383 58.4763 20.0051 58.0436 20.799C57.6109 21.5929 57.3918 22.5171 57.3918 23.5599ZM66.7581 32.8733V29.6266C66.6321 29.9584 66.309 30.4324 65.7941 31.0367C65.2737 31.641 64.5781 32.192 63.7072 32.6837C62.8308 33.1755 61.8066 33.4243 60.6289 33.4243C58.9802 33.4243 57.5123 32.9977 56.2416 32.1387C54.9653 31.2855 53.9685 30.1065 53.2509 28.6195C52.5279 27.1265 52.1719 25.4439 52.1719 23.5658C52.1719 21.6877 52.5334 20.0051 53.2509 18.5121C53.9739 17.0191 54.9708 15.8401 56.2416 14.9811C57.5123 14.1161 58.9802 13.6836 60.6289 13.6836C61.7792 13.6836 62.7761 13.891 63.6196 14.3057C64.4686 14.7204 65.1532 15.2062 65.6791 15.7572C66.2049 16.3082 66.5445 16.8058 66.6979 17.2443V14.2227H71.989V32.8674H66.7581V32.8733Z" fill="#F5C10A"/>
<path d="M85.2716 13.6836C86.4493 13.6836 87.594 13.9443 88.7169 14.4656C89.8343 14.987 90.7545 15.8164 91.4775 16.954C92.2005 18.0915 92.5565 19.5726 92.5565 21.4033V32.8733H87.2051V22.4046C87.2051 20.876 86.871 19.7385 86.2083 18.9979C85.54 18.2574 84.6746 17.8841 83.5956 17.8841C82.8944 17.8841 82.2262 18.0915 81.5908 18.5062C80.9555 18.9209 80.4351 19.4956 80.0353 20.2303C79.6354 20.9649 79.4382 21.8003 79.4382 22.7423V32.8733H74.1033V14.2287H79.4382V17.2028C79.5916 16.6874 79.9421 16.1601 80.4899 15.615C81.0376 15.0699 81.7278 14.6138 82.5713 14.2405C83.4093 13.8673 84.3131 13.6836 85.2771 13.6836H85.2716Z" fill="#F5C10A"/>
<path d="M103.479 28.8268C104.388 28.8268 105.127 28.6609 105.702 28.3291C106.277 27.9973 106.655 27.7485 106.836 27.5826L109.312 31.558C109.115 31.7239 108.753 31.9609 108.222 32.263C107.691 32.5652 107.017 32.8377 106.195 33.0688C105.374 33.3057 104.443 33.4183 103.391 33.4183C101.572 33.4183 99.9402 33.0214 98.4996 32.2275C97.0591 31.4336 95.9198 30.2961 95.0872 28.8208C94.2547 27.3456 93.8384 25.586 93.8384 23.542C93.8384 21.4981 94.2547 19.7207 95.0872 18.2514C95.9198 16.7821 97.0591 15.6564 98.4996 14.8684C99.9402 14.0805 101.572 13.6895 103.391 13.6895C104.426 13.6895 105.346 13.8139 106.151 14.0509C106.957 14.2938 107.63 14.5722 108.178 14.8803C108.726 15.1884 109.104 15.4431 109.312 15.6446L106.77 19.6437C106.672 19.5192 106.486 19.3534 106.201 19.146C105.921 18.9327 105.554 18.7372 105.1 18.5535C104.645 18.3699 104.103 18.281 103.473 18.281C102.706 18.281 101.972 18.5002 101.277 18.9386C100.586 19.3771 100.022 19.9932 99.5896 20.7812C99.1569 21.5691 98.9378 22.4934 98.9378 23.5539C98.9378 24.6144 99.1514 25.5445 99.5896 26.3325C100.022 27.1264 100.586 27.7426 101.277 28.181C101.967 28.6194 102.701 28.8386 103.473 28.8386L103.479 28.8268Z" fill="#F5C10A"/>
<path d="M121.746 21.2671C121.729 20.7813 121.592 20.2599 121.335 19.6971C121.077 19.1343 120.667 18.6603 120.119 18.2693C119.566 17.8783 118.843 17.6768 117.944 17.6768C117.046 17.6768 116.29 17.8723 115.71 18.2574C115.129 18.6425 114.696 19.1106 114.406 19.6556C114.121 20.2007 113.946 20.7398 113.891 21.2671H121.746ZM113.749 24.8337C113.792 25.6809 114.001 26.4393 114.379 27.1028C114.756 27.7664 115.304 28.2937 116.027 28.6729C116.75 29.052 117.621 29.2416 118.64 29.2416C119.538 29.2416 120.327 29.1172 121.023 28.8802C121.713 28.6373 122.304 28.3411 122.786 27.9915C123.268 27.642 123.624 27.2924 123.849 26.9488L126.073 30.468C125.667 31.0131 125.142 31.5107 124.501 31.9551C123.854 32.3994 123.033 32.7608 122.03 33.0215C121.028 33.2881 119.779 33.4184 118.284 33.4184C116.394 33.4184 114.735 33.0156 113.305 32.2158C111.875 31.4159 110.758 30.2547 109.953 28.738C109.148 27.2213 108.748 25.4203 108.748 23.3348C108.748 21.516 109.109 19.8808 109.827 18.4174C110.55 16.954 111.591 15.8047 112.954 14.9515C114.318 14.1043 115.962 13.6777 117.879 13.6777C119.686 13.6777 121.247 14.051 122.573 14.8034C123.893 15.5499 124.922 16.646 125.651 18.0856C126.379 19.5253 126.741 21.279 126.741 23.3526C126.741 23.477 126.741 23.7258 126.73 24.0991C126.725 24.4782 126.708 24.7212 126.675 24.8278H113.738L113.749 24.8337Z" fill="#F5C10A"/>
<path d="M133.631 32.8733H128.296V14.2287H133.631V17.2502H133.527C133.626 16.8888 133.894 16.4267 134.332 15.8638C134.771 15.301 135.384 14.8033 136.167 14.3531C136.951 13.9087 137.898 13.6836 139.005 13.6836C139.804 13.6836 140.527 13.808 141.179 14.0568C141.831 14.3057 142.297 14.5545 142.576 14.7974L140.478 19.5193C140.297 19.2764 139.958 19.0276 139.459 18.7728C138.961 18.5181 138.342 18.3877 137.602 18.3877C136.721 18.3877 135.987 18.6484 135.401 19.1698C134.814 19.6911 134.371 20.331 134.08 21.0775C133.79 21.824 133.642 22.529 133.642 23.1748V32.8733H133.631Z" fill="#F5C10A"/>
<path d="M146.607 33.4185C145.753 33.4185 145.019 33.0867 144.411 32.4291C143.803 31.7714 143.496 30.9716 143.496 30.0355C143.496 29.0995 143.803 28.2937 144.411 27.6302C145.019 26.9666 145.753 26.6289 146.607 26.6289C147.462 26.6289 148.234 26.9607 148.842 27.6302C149.45 28.2937 149.757 29.0995 149.757 30.0355C149.757 30.9716 149.45 31.7714 148.842 32.4291C148.234 33.0867 147.489 33.4185 146.607 33.4185Z" fill="#F5C10A"/>
<path d="M161.911 29.4904C162.908 29.4904 163.713 29.3126 164.338 28.9572C164.962 28.6017 165.362 28.341 165.543 28.1751L167.662 31.5818C167.492 31.7358 167.142 31.955 166.611 32.2512C166.079 32.5475 165.406 32.8141 164.584 33.057C163.762 33.2999 162.837 33.4184 161.801 33.4184C160.093 33.4184 158.542 33.0274 157.151 32.2512C155.76 31.4692 154.643 30.3435 153.815 28.8683C152.983 27.3931 152.567 25.6157 152.567 23.5421C152.567 21.4685 152.983 19.6733 153.815 18.2041C154.648 16.7348 155.76 15.615 157.151 14.8448C158.542 14.0746 160.093 13.6836 161.801 13.6836C162.82 13.6836 163.735 13.808 164.54 14.0568C165.345 14.3057 166.014 14.5901 166.545 14.91C167.076 15.2299 167.432 15.4787 167.618 15.6565L165.455 19.0631C165.356 18.9565 165.159 18.7906 164.858 18.5536C164.557 18.3225 164.162 18.1033 163.669 17.9078C163.176 17.7123 162.59 17.6116 161.906 17.6116C161.068 17.6116 160.262 17.8545 159.49 18.3403C158.723 18.8261 158.088 19.5075 157.6 20.3961C157.107 21.2848 156.866 22.3276 156.866 23.5421C156.866 24.7566 157.113 25.8053 157.6 26.6999C158.088 27.5945 158.718 28.2818 159.49 28.7676C160.257 29.2534 161.062 29.4963 161.906 29.4963L161.911 29.4904Z" fill="#F5C10A"/>
<path d="M177.072 29.3304C178.08 29.3304 178.957 29.0816 179.696 28.5839C180.441 28.0863 181.011 27.4049 181.416 26.5399C181.821 25.675 182.024 24.6915 182.024 23.5895C182.024 22.4875 181.821 21.4981 181.416 20.6272C181.011 19.7563 180.436 19.0631 179.696 18.5477C178.951 18.0322 178.08 17.7775 177.072 17.7775C176.065 17.7775 175.188 18.0322 174.438 18.5477C173.687 19.0631 173.107 19.7563 172.696 20.6272C172.285 21.4981 172.077 22.4875 172.077 23.5895C172.077 24.6915 172.285 25.6809 172.696 26.5399C173.107 27.4049 173.693 28.0863 174.438 28.5839C175.188 29.0816 176.065 29.3304 177.072 29.3304ZM177.072 33.4184C175.265 33.4184 173.66 32.9918 172.252 32.1327C170.845 31.2796 169.744 30.1125 168.944 28.6372C168.144 27.162 167.75 25.4854 167.75 23.6073C167.75 21.7292 168.15 20.0407 168.944 18.5418C169.744 17.0428 170.845 15.8579 172.252 14.987C173.66 14.1161 175.265 13.6836 177.072 13.6836C178.88 13.6836 180.474 14.1161 181.86 14.987C183.245 15.8579 184.335 17.0428 185.124 18.5418C185.913 20.0407 186.313 21.7292 186.313 23.6073C186.313 25.4854 185.918 27.162 185.124 28.6372C184.335 30.1125 183.245 31.2796 181.86 32.1327C180.474 32.9859 178.88 33.4184 177.072 33.4184Z" fill="#F5C10A"/>
<path d="M209.619 13.6836C210.906 13.6836 212.018 13.9798 212.949 14.5723C213.88 15.1647 214.598 16.0712 215.113 17.2976C215.622 18.524 215.88 20.094 215.88 22.0017V32.8792H211.448V22.8667C211.448 21.0656 211.213 19.697 210.742 18.755C210.271 17.819 209.394 17.345 208.107 17.345C207.406 17.345 206.749 17.5523 206.135 17.9611C205.522 18.3699 205.023 18.9802 204.656 19.7859C204.284 20.5976 204.098 21.6225 204.098 22.8608V32.8733H199.94V22.8608C199.94 21.0597 199.656 19.6911 199.091 18.7491C198.522 17.813 197.678 17.3391 196.561 17.3391C195.849 17.3391 195.186 17.5346 194.589 17.9315C193.987 18.3225 193.505 18.9328 193.138 19.7504C192.776 20.568 192.59 21.6048 192.59 22.8608V32.8733H188.137V14.2287H192.59V17.0251C192.743 16.557 193.088 16.0653 193.631 15.5498C194.167 15.0344 194.846 14.596 195.657 14.2346C196.468 13.8732 197.361 13.6895 198.325 13.6895C199.376 13.6895 200.247 13.8969 200.937 14.3116C201.627 14.7263 202.181 15.2477 202.597 15.8698C203.008 16.4918 203.314 17.1139 203.512 17.7301C203.709 17.108 204.087 16.4859 204.656 15.8698C205.226 15.2477 205.933 14.7322 206.787 14.3116C207.642 13.891 208.584 13.6895 209.624 13.6895L209.619 13.6836Z" fill="#F5C10A"/>
<path d="M26.3244 32.2512C25.7328 33.3177 25.1139 34.2597 24.3197 35.0536C23.4652 35.9067 22.5067 36.5584 21.3235 36.7065C19.527 36.9257 18.2124 36.0489 17.2539 34.4907C16.5363 33.3177 16.1912 31.9965 16.0215 30.5983C15.6052 27.2746 15.293 23.9272 14.444 20.6805C14.192 19.7207 13.8415 18.7965 13.1897 18.05C12.7898 17.5938 12.6364 17.5642 12.127 17.8782C11.3109 18.3699 10.6536 19.0631 10.0511 19.8215C8.02449 22.3572 6.56204 25.2484 5.37345 28.3232C4.65043 30.1954 3.98767 32.0854 3.45637 34.0345C3.17702 35.0773 2.27873 35.6342 1.3421 35.409C0.432861 35.1898 -0.098444 34.2774 0.0220581 33.1932C0.317836 30.5331 0.597182 27.873 0.89296 25.2188C1.18326 22.5586 1.48999 19.9044 1.78029 17.2443C2.0925 14.3708 2.39924 11.5034 2.71145 8.62993C2.90863 6.81701 3.10034 5.01001 3.32491 3.20301C3.46184 2.08919 4.33275 1.37231 5.28581 1.5145C6.24435 1.66262 6.89615 2.5987 6.77565 3.7066C6.3758 7.45686 5.95953 11.2071 5.54872 14.9574C5.34606 16.8177 5.1434 18.6839 4.94073 20.5443C4.92978 20.6154 4.92978 20.6924 4.9243 20.7931C5.08862 20.722 5.13244 20.568 5.20365 20.4495C6.26626 18.7728 7.37269 17.1376 8.7968 15.7927C9.53625 15.0936 10.3305 14.4716 11.278 14.1339C12.7953 13.5947 14.1701 13.8791 15.3696 15.0522C16.5035 16.1719 17.1881 17.582 17.6811 19.1283C18.2507 20.9234 18.5137 22.7897 18.793 24.65C19.1271 26.8717 19.3407 29.1112 19.7625 31.3211C19.8501 31.7891 20.0364 32.2038 20.2993 32.5771C20.5896 32.9859 20.8141 33.0274 21.2414 32.8022C21.7234 32.5475 22.0958 32.1446 22.419 31.7003C23.7281 29.9051 24.4347 27.8256 24.8126 25.6098C24.9276 24.9462 24.7031 24.2649 24.5881 23.5954C24.3416 22.1202 24.0294 20.6628 23.7774 19.1935C23.6459 18.4233 23.5966 17.6471 23.6569 16.8651C23.7226 15.9764 24.1992 15.2951 24.9276 15.0581C25.6561 14.8152 26.3846 15.0818 26.9105 15.7987C27.858 17.0902 28.2962 18.6069 28.5044 20.2125C28.718 21.8832 28.6796 23.548 28.4606 25.2188C28.3893 25.7816 28.5482 26.3207 28.6358 26.8599C28.8549 28.2284 29.1124 29.5793 29.6108 30.8649C29.8408 31.4573 30.1257 32.0202 30.5529 32.4882C30.9254 32.897 31.0623 32.9326 31.5334 32.6541C32.1523 32.2868 32.6946 31.8128 33.1766 31.2559C35.1758 28.9335 36.6711 26.2674 37.8542 23.3821C38.7744 21.1367 39.6234 18.8617 40.2478 16.4978C40.5272 15.4432 41.4036 14.8863 42.3457 15.0936C43.2714 15.301 43.8081 16.2193 43.6876 17.3272C43.3699 20.2006 43.0687 23.0681 42.751 25.9416C42.4826 28.3766 42.2033 30.8056 41.9349 33.2406C41.6665 35.6756 41.409 38.1106 41.1461 40.5457C40.8997 42.8029 40.6587 45.0661 40.3848 47.3234C40.2533 48.4135 39.3934 49.1185 38.4403 48.9941C37.4873 48.8697 36.8081 47.9158 36.9231 46.8257C37.3284 43.0636 37.7447 39.3015 38.1555 35.5394C38.3582 33.6909 38.5608 31.8365 38.758 29.988C38.769 29.9051 38.8073 29.8222 38.7306 29.7037C38.4294 30.1717 38.1391 30.6398 37.8323 31.09C36.7697 32.66 35.6633 34.1827 34.1844 35.332C33.3245 36.0015 32.4097 36.5406 31.3197 36.6177C29.8901 36.7243 28.7782 36.0548 27.8526 34.9351C27.3048 34.2715 26.8666 33.5309 26.5216 32.7311C26.4668 32.5949 26.4065 32.4645 26.3134 32.2631L26.3244 32.2512Z" fill="#F5C10A"/>
</g>
</g>
<defs>
<clipPath id="clip0_367_2169">
<rect width="216" height="47.5152" fill="white" transform="translate(0 1.48486)"/>
</clipPath>
</defs>
</svg>
