<svg width="698" height="88" viewBox="0 0 698 88" fill="none" xmlns="http://www.w3.org/2000/svg">
<g clip-path="url(#clip0_370_3175)">
<path d="M0.600586 75.744C0.600586 75.744 101.674 46.9463 213.606 58.4614C325.538 69.9765 274.317 12.6993 214.278 28.182C154.24 43.6648 182.734 90.2721 351.641 77.2554C530 53 644 28.182 644 28.182" stroke="#858585" stroke-width="1.5" stroke-linecap="round" stroke-linejoin="round" stroke-dasharray="3 3"/>
</g>
<path fill-rule="evenodd" clip-rule="evenodd" d="M634.878 44.9303L649.532 52.6964L692.395 16.9805L634.878 44.9303Z" fill="#F5C10A"/>
<path fill-rule="evenodd" clip-rule="evenodd" d="M629.17 26.365L635.832 34.3961L692.395 16.9805L629.17 26.365Z" fill="#F5C10A"/>
<path fill-rule="evenodd" clip-rule="evenodd" d="M618.291 60.2685L692.394 16.9806L625.275 35.3591L618.291 60.2685Z" fill="#F9DA6C"/>
<path fill-rule="evenodd" clip-rule="evenodd" d="M629.17 26.365L692.395 16.9805L634.103 9.96435L629.17 26.365Z" fill="#F9DA6C"/>
<defs>
<clipPath id="clip0_370_3175">
<rect width="636" height="65" fill="white" transform="translate(0 23)"/>
</clipPath>
</defs>
</svg>
