<svg width="40" height="40" viewBox="0 0 40 40" fill="none" xmlns="http://www.w3.org/2000/svg">
<path fill-rule="evenodd" clip-rule="evenodd" d="M20 0.000244141C8.96 0.000244141 0 8.96024 0 20.0002C0 31.0402 8.96 40.0002 20 40.0002C31.04 40.0002 40 31.0402 40 20.0002C40 8.96024 31.04 0.000244141 20 0.000244141ZM22.8201 32.1804V36.0004H17.4801V32.1404C14.0601 31.4204 11.1601 29.2204 10.9401 25.3404H14.8601C15.0601 27.4404 16.5001 29.0804 20.1601 29.0804C24.0801 29.0804 24.9601 27.1204 24.9601 25.9004C24.9601 24.2404 24.0801 22.6804 19.6201 21.6204C14.6601 20.4204 11.2601 18.3804 11.2601 14.2804C11.2601 10.8404 14.0401 8.60039 17.4801 7.86039V4.00039H22.8201V7.90039C26.5401 8.80039 28.4001 11.6204 28.5201 14.6804H24.6001C24.5001 12.4604 23.3201 10.9404 20.1601 10.9404C17.1601 10.9404 15.3601 12.3004 15.3601 14.2204C15.3601 15.9004 16.6601 17.0004 20.7001 18.0404C24.7401 19.0804 29.0601 20.8204 29.0601 25.8604C29.0401 29.5204 26.3001 31.5204 22.8201 32.1804Z" fill="#F5C10A"/>
</svg>
